<?xml version="1.0" standalone="no"?>
<!DOCTYPE svg PUBLIC "-//W3C//DTD SVG 20010904//EN"
 "http://www.w3.org/TR/2001/REC-SVG-20010904/DTD/svg10.dtd">
<svg version="1.0" xmlns="http://www.w3.org/2000/svg"
 width="512.000000pt" height="512.000000pt" viewBox="0 0 512.000000 512.000000"
 preserveAspectRatio="xMidYMid meet">
<metadata>
Created by potrace 1.11, written by Peter Selinger 2001-2013
</metadata>
<g transform="translate(0.000000,512.000000) scale(0.100000,-0.100000)"
fill="#000000" stroke="none">
<path d="M799 4580 c-60 -10 -136 -50 -176 -92 -18 -18 -45 -60 -60 -93 l-28
-60 0 -1770 c0 -1686 1 -1772 18 -1822 24 -70 93 -145 165 -180 l57 -28 1785
0 1785 0 52 24 c66 29 143 111 169 176 18 49 19 96 19 1820 0 1686 -1 1772
-18 1822 -26 73 -92 143 -169 179 l-63 29 -1745 1 c-960 1 -1766 -2 -1791 -6z
m1868 -1154 c99 -21 169 -60 243 -135 187 -188 186 -469 -1 -653 l-58 -57 -3
-349 -3 -348 -28 -42 c-15 -23 -46 -54 -69 -69 -39 -26 -50 -28 -166 -31 -98
-3 -134 0 -168 13 -45 17 -108 79 -124 121 -6 14 -10 173 -10 364 l0 339 -60
57 c-42 40 -72 81 -98 133 -36 74 -37 77 -37 195 0 115 2 124 31 186 69 144
189 242 337 274 83 19 132 19 214 2z"/>
</g>
</svg>
